<?xml version="1.0" encoding="UTF-8"?>
<!DOCTYPE svg PUBLIC "-//W3C//DTD SVG 1.1//EN" "http://www.w3.org/Graphics/SVG/1.1/DTD/svg11.dtd">
<svg xmlns="http://www.w3.org/2000/svg" version="1.1" width="512px" height="512px" style="shape-rendering:geometricPrecision; text-rendering:geometricPrecision; image-rendering:optimizeQuality; fill-rule:evenodd; clip-rule:evenodd" xmlns:xlink="http://www.w3.org/1999/xlink">
<g><path style="opacity:0.997" fill="#dc6d22" d="M 5.5,375.5 C 8.16667,374.833 8.16667,374.167 5.5,373.5C 5.5,294.833 5.5,216.167 5.5,137.5C 8.16667,136.833 8.16667,136.167 5.5,135.5C 7.41494,124.171 10.4149,113.171 14.5,102.5C 16.3818,101.779 16.7152,100.779 15.5,99.5C 16.5612,96.3777 17.8946,93.3777 19.5,90.5C 21.1765,89.8166 21.8432,88.4832 21.5,86.5C 38.2728,53.8982 63.6061,30.3982 97.5,16C 108.859,11.5771 120.525,8.24375 132.5,6C 214.833,5.33333 297.167,5.33333 379.5,6C 448.036,21.2024 489.869,63.0358 505,131.5C 505.667,214.167 505.667,296.833 505,379.5C 493.686,435.812 461.52,474.978 408.5,497C 398.715,500.484 388.715,503.151 378.5,505C 296.5,505.667 214.5,505.667 132.5,505C 61.7019,489.702 19.3686,446.536 5.5,375.5 Z"/></g>
<g><path style="opacity:0.71" fill="#ab8371" d="M 21.5,86.5 C 21.8432,88.4832 21.1765,89.8166 19.5,90.5C 19.9887,89.0048 20.6554,87.6715 21.5,86.5 Z"/></g>
<g><path style="opacity:0.565" fill="#af7e67" d="M 15.5,99.5 C 16.7152,100.779 16.3818,101.779 14.5,102.5C 14.5569,101.391 14.8902,100.391 15.5,99.5 Z"/></g>
<g><path style="opacity:1" fill="#e8e4d1" d="M 349.5,108.5 C 349.167,111.167 348.833,113.833 348.5,116.5C 346.399,126.169 344.233,135.836 342,145.5C 341.333,149.167 341.333,152.833 342,156.5C 349.018,171.254 354.185,186.587 357.5,202.5C 357.41,205.152 358.076,207.485 359.5,209.5C 369.546,245.463 373.379,282.129 371,319.5C 370.056,325.498 369.223,331.498 368.5,337.5C 367.076,339.515 366.41,341.848 366.5,344.5C 360.384,368.787 345.384,384.954 321.5,393C 312.628,396.123 303.628,398.957 294.5,401.5C 291.572,401.565 288.905,402.232 286.5,403.5C 242.346,411.733 207.18,397.733 181,361.5C 165.05,338.382 154.217,313.049 148.5,285.5C 148.706,282.505 148.04,279.838 146.5,277.5C 144.424,266.557 142.757,255.557 141.5,244.5C 140.808,231.845 140.475,219.179 140.5,206.5C 142.166,169.648 159.5,143.148 192.5,127C 197.995,124.817 203.661,124.151 209.5,125C 212.358,126.865 214.858,129.032 217,131.5C 222.6,124.897 229.1,119.397 236.5,115C 246.506,111.838 253.173,115.338 256.5,125.5C 262.694,120.806 269.028,116.306 275.5,112C 281.845,110.592 287.012,112.425 291,117.5C 298.727,112.553 306.894,108.553 315.5,105.5C 320.653,106.822 323.486,110.155 324,115.5C 328.748,112.209 333.581,109.042 338.5,106C 341.167,105.333 343.833,105.333 346.5,106C 347.942,106.377 348.942,107.21 349.5,108.5 Z"/></g>
<g><path style="opacity:0.992" fill="#e4b388" d="M 349.5,108.5 C 350.746,111.293 350.413,113.96 348.5,116.5C 348.833,113.833 349.167,111.167 349.5,108.5 Z"/></g>
<g><path style="opacity:0.975" fill="#e4b78f" d="M 310.5,118.5 C 310.56,117.957 310.893,117.624 311.5,117.5C 312.474,119.743 312.808,122.076 312.5,124.5C 311.833,122.5 311.167,120.5 310.5,118.5 Z"/></g>
<g><path style="opacity:1" fill="#dd6d22" d="M 310.5,118.5 C 311.167,120.5 311.833,122.5 312.5,124.5C 313.378,127.287 315.378,128.62 318.5,128.5C 325.037,126.565 331.037,123.565 336.5,119.5C 336.833,119.833 337.167,120.167 337.5,120.5C 333.211,133.23 331.211,146.23 331.5,159.5C 327.943,157.016 323.943,156.016 319.5,156.5C 314.207,155.782 309.54,157.115 305.5,160.5C 301.279,157.222 296.612,154.722 291.5,153C 281.167,152.333 270.833,152.333 260.5,153C 255.055,153.706 249.888,155.206 245,157.5C 238.751,153.673 231.918,152.506 224.5,154C 192.745,165.33 178.578,187.83 182,221.5C 186.77,252.7 197.437,281.7 214,308.5C 214.036,334.374 226.87,349.374 252.5,353.5C 259.264,355.035 266.264,355.702 273.5,355.5C 278.678,355.499 283.678,355.166 288.5,354.5C 302.157,353.413 314.491,348.913 325.5,341C 333.912,334.023 337.745,325.19 337,314.5C 334.949,311.447 332.115,309.614 328.5,309C 294.819,308.855 261.153,308.189 227.5,307C 226.572,306.612 225.905,305.945 225.5,305C 228.808,294.697 234.808,286.364 243.5,280C 248.528,278.452 252.528,279.785 255.5,284C 257.5,284.667 259.5,284.667 261.5,284C 262.685,282.647 264.019,281.48 265.5,280.5C 270.162,284.166 275.162,287.333 280.5,290C 291.034,292.488 297.867,288.655 301,278.5C 301.706,270.792 301.372,263.125 300,255.5C 297.141,241.065 293.808,226.732 290,212.5C 284.713,197.781 280.38,182.781 277,167.5C 272.543,164.294 269.376,165.294 267.5,170.5C 273.022,191.292 278.855,211.958 285,232.5C 286.362,238.81 287.529,245.143 288.5,251.5C 288.41,254.152 289.076,256.485 290.5,258.5C 292.096,265.795 291.762,272.962 289.5,280C 287.167,280.667 284.833,280.667 282.5,280C 277.833,277 273.167,274 268.5,271C 264.882,270.034 261.549,270.534 258.5,272.5C 249.611,266.79 241.278,267.624 233.5,275C 226.754,280.668 221.587,287.501 218,295.5C 205.174,272.691 196.507,248.357 192,222.5C 188.056,194.21 199.222,174.71 225.5,164C 228.554,163.179 231.554,163.345 234.5,164.5C 227.864,172.1 223.031,180.767 220,190.5C 217.982,212.138 227.149,218.972 247.5,211C 251.661,207.846 254.161,203.679 255,198.5C 255.667,191.5 255.667,184.5 255,177.5C 253.429,173.615 252.429,169.615 252,165.5C 255.354,164.189 258.854,163.356 262.5,163C 271.167,162.333 279.833,162.333 288.5,163C 292.381,163.607 295.714,165.274 298.5,168C 290.24,178.503 288.407,190.003 293,202.5C 296.813,207.863 301.979,209.863 308.5,208.5C 315.197,209.807 320.53,207.807 324.5,202.5C 326.172,196.896 325.505,191.563 322.5,186.5C 319.838,179.74 316.671,173.407 313,167.5C 316.256,165.571 319.756,165.071 323.5,166C 333.457,171.063 340.29,178.896 344,189.5C 346.531,196.325 348.364,203.325 349.5,210.5C 349.41,213.152 350.076,215.485 351.5,217.5C 353.47,224.016 354.803,230.683 355.5,237.5C 355.335,240.85 355.502,244.183 356,247.5C 356.278,248.416 356.778,249.082 357.5,249.5C 361.028,270.292 362.362,291.292 361.5,312.5C 360.513,317.32 359.847,322.32 359.5,327.5C 357.597,345.05 350.597,360.217 338.5,373C 321.568,382.699 303.568,389.532 284.5,393.5C 279.951,393.624 275.618,394.291 271.5,395.5C 263.475,395.61 255.475,395.276 247.5,394.5C 245.485,393.076 243.152,392.41 240.5,392.5C 222.934,387.627 208.101,378.294 196,364.5C 180.336,344.807 169.002,322.807 162,298.5C 158.128,284.304 154.961,269.971 152.5,255.5C 152.698,250.25 152.031,245.25 150.5,240.5C 148.891,223.773 149.391,207.106 152,190.5C 159.014,162.496 176.014,143.83 203,134.5C 204.167,134.833 205.333,135.167 206.5,135.5C 208.223,139.111 210.556,142.278 213.5,145C 214.833,145.667 216.167,145.667 217.5,145C 222.833,141 227.5,136.333 231.5,131C 234.78,127.879 238.447,125.379 242.5,123.5C 243.647,123.818 244.481,124.484 245,125.5C 244.434,136.965 249.268,140.465 259.5,136C 265.5,131.333 271.5,126.667 277.5,122C 280.838,120.794 282.671,121.96 283,125.5C 284.182,127.357 285.849,128.357 288,128.5C 290.89,127.87 293.724,127.037 296.5,126C 301.062,123.22 305.728,120.72 310.5,118.5 Z"/></g>
<g><path style="opacity:0.573" fill="#ab806a" d="M 5.5,135.5 C 8.16667,136.167 8.16667,136.833 5.5,137.5C 5.5,136.833 5.5,136.167 5.5,135.5 Z"/></g>
<g><path style="opacity:1" fill="#dd6f27" d="M 241.5,171.5 C 242.497,171.47 243.164,171.97 243.5,173C 245.911,182.134 246.077,191.3 244,200.5C 239.796,204.858 235.13,205.525 230,202.5C 228.595,195.283 229.929,188.616 234,182.5C 236.33,178.678 238.83,175.012 241.5,171.5 Z"/></g>
<g><path style="opacity:1" fill="#dd7028" d="M 313.5,190.5 C 313.833,193.167 314.167,195.833 314.5,198.5C 303.214,202.046 298.714,198.046 301,186.5C 301.822,184.212 302.489,181.878 303,179.5C 303.368,178.09 304.201,177.09 305.5,176.5C 309.201,180.567 311.867,185.234 313.5,190.5 Z"/></g>
<g><path style="opacity:0.996" fill="#e19862" d="M 313.5,190.5 C 315.413,193.04 315.746,195.707 314.5,198.5C 314.167,195.833 313.833,193.167 313.5,190.5 Z"/></g>
<g><path style="opacity:0.941" fill="#e4b68d" d="M 322.5,186.5 C 325.505,191.563 326.172,196.896 324.5,202.5C 324.635,197.047 323.968,191.714 322.5,186.5 Z"/></g>
<g><path style="opacity:0.969" fill="#e4b58b" d="M 357.5,202.5 C 358.924,204.515 359.59,206.848 359.5,209.5C 358.076,207.485 357.41,205.152 357.5,202.5 Z"/></g>
<g><path style="opacity:0.957" fill="#e29f6b" d="M 349.5,210.5 C 350.924,212.515 351.59,214.848 351.5,217.5C 350.076,215.485 349.41,213.152 349.5,210.5 Z"/></g>
<g><path style="opacity:0.98" fill="#e5bb95" d="M 140.5,206.5 C 140.475,219.179 140.808,231.845 141.5,244.5C 140.04,236.885 139.373,229.051 139.5,221C 139.501,215.988 139.834,211.155 140.5,206.5 Z"/></g>
<g><path style="opacity:0.973" fill="#e18e53" d="M 355.5,237.5 C 356.617,241.295 357.283,245.295 357.5,249.5C 356.778,249.082 356.278,248.416 356,247.5C 355.502,244.183 355.335,240.85 355.5,237.5 Z"/></g>
<g><path style="opacity:0.957" fill="#e6c19c" d="M 150.5,240.5 C 152.031,245.25 152.698,250.25 152.5,255.5C 150.969,250.75 150.302,245.75 150.5,240.5 Z"/></g>
<g><path style="opacity:0.992" fill="#e3ab7e" d="M 288.5,251.5 C 289.924,253.515 290.59,255.848 290.5,258.5C 289.076,256.485 288.41,254.152 288.5,251.5 Z"/></g>
<g><path style="opacity:0.996" fill="#e3a778" d="M 146.5,277.5 C 148.04,279.838 148.706,282.505 148.5,285.5C 147.232,283.095 146.565,280.428 146.5,277.5 Z"/></g>
<g><path style="opacity:1" fill="#dd6e24" d="M 248.5,318.5 C 231.179,318.668 231.179,319.168 248.5,320C 274.406,320.172 300.239,320.672 326,321.5C 326.167,321.167 326.333,320.833 326.5,320.5C 306.004,319.833 285.671,319.167 265.5,318.5C 286.167,318.5 306.833,318.5 327.5,318.5C 325.705,327.804 320.372,334.304 311.5,338C 289.177,346.583 266.51,347.583 243.5,341C 232.473,336.82 226.14,328.987 224.5,317.5C 225.833,317.167 227.167,316.833 228.5,316.5C 235.334,317.005 242.001,317.671 248.5,318.5 Z"/></g>
<g><path style="opacity:1" fill="#db6112" d="M 248.5,318.5 C 254.167,318.5 259.833,318.5 265.5,318.5C 285.671,319.167 306.004,319.833 326.5,320.5C 326.333,320.833 326.167,321.167 326,321.5C 300.239,320.672 274.406,320.172 248.5,320C 231.179,319.168 231.179,318.668 248.5,318.5 Z"/></g>
<g><path style="opacity:0.98" fill="#e5bc96" d="M 361.5,312.5 C 361.904,317.783 361.238,322.783 359.5,327.5C 359.847,322.32 360.513,317.32 361.5,312.5 Z"/></g>
<g><path style="opacity:0.969" fill="#e29863" d="M 368.5,337.5 C 368.59,340.152 367.924,342.485 366.5,344.5C 366.41,341.848 367.076,339.515 368.5,337.5 Z"/></g>
<g><path style="opacity:0.977" fill="#e3a676" d="M 252.5,353.5 C 264.484,354.277 276.484,354.61 288.5,354.5C 283.678,355.166 278.678,355.499 273.5,355.5C 266.264,355.702 259.264,355.035 252.5,353.5 Z"/></g>
<g><path style="opacity:0.035" fill="#aa816d" d="M 5.5,373.5 C 8.16667,374.167 8.16667,374.833 5.5,375.5C 5.5,374.833 5.5,374.167 5.5,373.5 Z"/></g>
<g><path style="opacity:0.969" fill="#e3a575" d="M 240.5,392.5 C 243.152,392.41 245.485,393.076 247.5,394.5C 244.848,394.59 242.515,393.924 240.5,392.5 Z"/></g>
<g><path style="opacity:0.969" fill="#e6bb94" d="M 284.5,393.5 C 280.455,395.177 276.122,395.844 271.5,395.5C 275.618,394.291 279.951,393.624 284.5,393.5 Z"/></g>
<g><path style="opacity:0.973" fill="#e29861" d="M 294.5,401.5 C 292.162,403.04 289.495,403.706 286.5,403.5C 288.905,402.232 291.572,401.565 294.5,401.5 Z"/></g>
</svg>
